PathFileType	4	(X/Y/Z)	/Users/visionmauri/4_2_1_f_1_Sports2D/4_2_1_f_1_Sports2D_px_person00.trc
DataRate	CameraRate	NumFrames	NumMarkers	Units	OrigDataRate	OrigDataStartFrame	OrigNumFrames
30.0	30.0	10	22	m	30.0	0	382
Frame#	Time	Hip			RHip			RKnee			RAnkle			RBigToe			RSmallToe			RHeel			LHip			LKnee			LAnkle			LBigToe			LSmallToe			LHeel			Neck			Head			Nose			RShoulder			RElbow			RWrist			LShoulder			LElbow			LWrist			
		X1	Y1	Z1	X2	Y2	Z2	X3	Y3	Z3	X4	Y4	Z4	X5	Y5	Z5	X6	Y6	Z6	X7	Y7	Z7	X8	Y8	Z8	X9	Y9	Z9	X10	Y10	Z10	X11	Y11	Z11	X12	Y12	Z12	X13	Y13	Z13	X14	Y14	Z14	X15	Y15	Z15	X16	Y16	Z16	X17	Y17	Z17	X18	Y18	Z18	X19	Y19	Z19	X20	Y20	Z20	X21	Y21	Z21	X22	Y22	Z22
0	0.0	572.6375481814848	866.9025950480708	0.0	644.8492367529175	894.4116966453014	0.0	641.4109127636	1111.0463929593625	0.0	662.0423054491315	1138.5567465769002	0.0	689.5519559278742	1128.239449889953	0.0	730.8146871605959	1107.6093965991618	0.0	655.1643423613073	1138.5572246091758	0.0	493.5487007436046	897.8504452982592	0.0	435.0919143061896	1162.6271726167884	0.0	507.30310899682405	1458.3494115617254	0.0	414.4605330305692	1520.2465902066501	0.0	417.8989678904361	1530.5621192902042	0.0	541.6892772582322	1496.174624660207	0.0	548.5670557675766	512.7218943288973	0.0	521.0581359152162	430.19470974433295	0.0	514.1809343061486	488.6507731372527	0.0	679.2360697503174	553.9860723176492	0.0	792.710780852737	712.1637850137512	0.0	799.5884795791175	873.7797765478435	0.0	431.6527779958412	540.2313117207539	0.0	359.4413966494821	719.0409341419297	0.0	311.3006783970358	880.6571402653999	0.0
1	0.033420822397200345	570.5277456881464	866.5665242343603	0.0	644.0707647162454	891.4104921735412	0.0	640.5167705986378	1103.9415767015646	0.0	660.5835977577226	1135.1635310657896	0.0	677.6093042175115	1127.4651594236038	0.0	725.4095929957141	1104.6699317568389	0.0	653.5221656466999	1134.8863363236665	0.0	491.89441316787406	897.2341264116416	0.0	435.8211737890419	1163.0105333590454	0.0	503.3897219520862	1457.1793352868337	0.0	412.1862568480391	1512.9825200283105	0.0	414.6710433216536	1524.2821658261025	0.0	535.140685129054	1494.7368773033927	0.0	547.2507301056903	515.3371125612589	0.0	518.5262200543588	430.5699148915414	0.0	514.2807821834024	486.6514294066679	0.0	678.4823556056377	552.7046392896892	0.0	790.9254163902133	711.8251775187182	0.0	799.8962776912838	869.8933289086933	0.0	430.5461382056982	541.0249582378233	0.0	359.03630115713617	718.8537707173593	0.0	310.8586571343433	879.3112130819079	0.0
2	0.06684164479440069	566.1382592719428	866.5842470423335	0.0	640.992104487386	888.7786610233605	0.0	638.8423454715994	1096.4348299081994	0.0	655.7912909448921	1133.4270149599913	0.0	662.2921878777959	1127.09500899653	0.0	709.567697824213	1105.2629279741334	0.0	649.08189435082	1131.7569073511863	0.0	487.8550776549851	897.1897684666777	0.0	437.49872561259497	1163.5641982769812	0.0	495.51495685179924	1454.2973319927107	0.0	408.68374956867865	1499.0986540050155	0.0	409.03924248490404	1512.851064827856	0.0	523.5387511857261	1493.4289922023497	0.0	544.5966546739928	517.8486279394757	0.0	515.2196227589022	432.1159208454848	0.0	511.30371504164043	487.613769696744	0.0	676.9116825149008	552.8120135044214	0.0	787.8349436917749	710.2535510503656	0.0	799.1195439678943	865.5237184981698	0.0	429.08972567619395	541.0188999574751	0.0	358.1493955275938	719.0396324567804	0.0	309.99086177165117	878.097021963619	0.0
3	0.10026246719160103	560.0053037139865	867.4968675452021	0.0	635.9855060536377	886.7527558027264	0.0	636.8520999254176	1091.5087617382512	0.0	649.2368820303586	1134.28026056686	0.0	648.8551195558588	1128.0433099205595	0.0	688.8467455017835	1109.4998264397198	0.0	644.5790704462968	1132.5320866263887	0.0	482.0492116379484	896.6799489745016	0.0	440.39474720026317	1164.750202288461	0.0	484.21584624664763	1449.0636019841356	0.0	405.2563499687953	1479.9270463367552	0.0	402.0410078374137	1497.1440007902188	0.0	508.4056862142181	1491.5077682069523	0.0	541.3039397851213	519.1876783306118	0.0	511.32647752860333	434.1088882337359	0.0	505.5181555043534	492.41099370016855	0.0	674.1379834065717	554.8612778068654	0.0	783.6996152045336	707.8958616630939	0.0	797.1475980788406	862.3545042346609	0.0	427.00827796559577	540.6966535208793	0.0	356.266777954596	719.5609464916527	0.0	308.9589010325328	877.1936626323705	0.0
4	0.13368328958880138	554.9182164726096	869.4460781303325	0.0	631.4309840410818	885.4426725604279	0.0	635.1548102878842	1090.1833748266695	0.0	645.1043221345291	1135.5124807625905	0.0	641.731972621591	1133.0307270800122	0.0	677.6409394324196	1116.7681623734993	0.0	645.0522822465059	1137.7772579225893	0.0	477.46088441066416	895.0127424199834	0.0	444.21496041213027	1166.37062112526	0.0	472.3457387123763	1441.3302564842916	0.0	404.8113981008152	1460.5814011752443	0.0	396.87283241556884	1480.0550424309995	0.0	493.549955723469	1486.4836108234617	0.0	538.4184209120007	519.1269001682126	0.0	507.7596468998066	435.8034081789562	0.0	500.31302318595465	497.5464691372317	0.0	669.9083392235066	557.3736336566858	0.0	779.170570155352	706.1667563531557	0.0	794.9163853397148	861.2229226939112	0.0	423.5989590412067	541.4429960629988	0.0	353.261585117137	719.7164357024383	0.0	308.27280720133587	876.261416627616	0.0
5	0.16710411198600172	552.4025891226695	871.0360796931697	0.0	628.6240336180834	884.3662253509852	0.0	633.9128127994805	1090.74347245464	0.0	644.2770147555852	1134.2686481853768	0.0	638.394660170946	1142.9191579329356	0.0	678.9075006654886	1127.1173720779123	0.0	648.9476547170725	1143.0466654987786	0.0	475.60326882336346	892.970780760261	0.0	448.4563819124627	1167.3329040191886	0.0	462.18689033982196	1431.3900173135235	0.0	408.41933204464254	1444.0238220373403	0.0	395.3810175096275	1463.216946858095	0.0	480.78532962487697	1477.0550012623996	0.0	535.2793224721781	518.773183813759	0.0	504.814671924441	437.9999272915476	0.0	498.23706571760425	499.0210344485357	0.0	664.4151973713282	558.6627490958233	0.0	774.428608441306	705.297181907646	0.0	793.163417588431	860.8952711372424	0.0	418.84187170958853	543.6413631126874	0.0	349.8528251606565	718.8169989473656	0.0	308.2133911716776	875.0563807292197	0.0
6	0.20052493438320207	550.9798271848081	870.5893018046937	0.0	626.7611856507654	882.0499267271085	0.0	633.4543528732097	1092.370104066845	0.0	644.1860655164527	1131.6301971650375	0.0	635.8793039077887	1152.6207340052279	0.0	683.4045863742516	1136.527139259432	0.0	649.8289732214902	1145.3567555210361	0.0	474.73377082309497	890.8602253594579	0.0	452.6537357479866	1167.4377821401208	0.0	455.6342079623161	1420.9982878458266	0.0	414.3462852231947	1432.0956006494607	0.0	397.1385579723228	1449.9043687496344	0.0	471.8614154989278	1466.2341002345452	0.0	530.8312030819264	519.5412025110916	0.0	501.1148545992615	440.75502838990354	0.0	498.71916921850374	497.5486365389513	0.0	658.9560884773911	558.9019208695751	0.0	769.8375024510847	704.4061495044376	0.0	791.913532705654	860.4506296229939	0.0	413.77133696882674	546.7239868693085	0.0	346.7378867070217	717.0078660120843	0.0	308.6628381539499	873.9492256053832	0.0
7	0.23394575678040241	548.7525716316678	869.0363351858766	0.0	624.5498031318286	878.4847509060294	0.0	633.6026347226664	1094.21740786699	0.0	643.3999830151563	1130.1254916968924	0.0	634.0558226147289	1157.0400564395218	0.0	685.01567767221	1140.9617123876872	0.0	646.6827547071769	1145.4654298513658	0.0	472.7392985046933	888.8701914281684	0.0	456.2540913572959	1167.3164248952862	0.0	453.9847815911215	1413.0592738955802	0.0	421.7280934186899	1427.2117587547127	0.0	401.809824775232	1444.166614018321	0.0	468.62829584403073	1458.5473188025958	0.0	525.5821285076571	522.3572113744053	0.0	496.3208838950837	442.46014126915065	0.0	499.676945637759	496.12364895378255	0.0	654.888082325543	558.6207427492639	0.0	765.7741401703947	703.3936057183441	0.0	790.9608726500632	859.8924873210585	0.0	408.7300372041259	550.0259545511279	0.0	343.82229497163115	715.0776413928581	0.0	309.10398325556883	873.3258186745962	0.0
8	0.26736657917760276	545.7331189073027	868.5452595816134	0.0	621.4911824226549	875.8096001724841	0.0	633.3445628536281	1095.1708194871007	0.0	642.896972888622	1128.8682334702953	0.0	632.5494733645677	1157.0975647098903	0.0	684.4456285817458	1142.5703506209961	0.0	644.0951527559957	1143.630900181658	0.0	469.8982750037049	887.8753496893646	0.0	458.59789759276964	1166.4603991108315	0.0	456.7077274619825	1409.7737018118844	0.0	431.1090946592698	1428.9636042818865	0.0	409.2648358768596	1444.801354904104	0.0	470.2552991764595	1455.5188460919462	0.0	520.9036648094012	526.0110715934278	0.0	493.09520519156365	442.10469547614224	0.0	499.91877720657243	495.6132791256417	0.0	651.6249834746917	557.4292450679143	0.0	761.9572762414908	702.9900731804134	0.0	789.8698458052651	859.1066964217267	0.0	403.4587231671681	552.3909924595547	0.0	340.82279721445957	713.7322020662131	0.0	309.24111229276593	873.1429026103712	0.0
9	0.3007874015748031	542.6027899758197	869.2322110798383	0.0	617.8601573373327	875.0142277622165	0.0	632.0085796077543	1095.031078989225	0.0	642.6427161406807	1126.2001905744833	0.0	630.1334686611922	1155.0439882156818	0.0	682.3678661992247	1143.5216437131508	0.0	643.5069669517708	1139.3859876721174	0.0	467.29452484515934	887.9757394073129	0.0	459.6693833146098	1164.6929124766573	0.0	461.1136471551577	1411.0444700277312	0.0	440.1964735415093	1432.4626451957977	0.0	416.88884792240896	1446.3720495109449	0.0	473.5946958173605	1455.922097247564	0.0	516.8736714293946	527.7268210265152	0.0	492.7717576442004	440.3731831708313	0.0	499.76767109416363	495.17688551458303	0.0	647.2130583718762	555.3302461379978	0.0	757.5944339433987	703.3565024171019	0.0	788.1053561915788	857.9666913368703	0.0	398.1554527668748	553.199697121006	0.0	337.29029824612724	713.0683144751708	0.0	309.09947877529635	873.0877652258545	0.0
